<svg width="16" height="20" viewBox="0 0 16 20" fill="none" xmlns="http://www.w3.org/2000/svg">
<path d="M5.175 10.65C4.95833 10.65 4.775 10.5833 4.625 10.45C4.49167 10.3 4.425 10.1167 4.425 9.9V3.375L2.1 5.675C1.96667 5.825 1.79167 5.9 1.575 5.9C1.375 5.9 1.2 5.825 1.05 5.675C0.9 5.525 0.825 5.35 0.825 5.15C0.825 4.93333 0.9 4.75 1.05 4.6L4.525 1.125C4.60833 1.04167 4.7 0.983332 4.8 0.949999C4.91667 0.899999 5.03333 0.874999 5.15 0.874999C5.26667 0.874999 5.375 0.899999 5.475 0.949999C5.59167 0.983332 5.7 1.04167 5.8 1.125L9.3 4.625C9.45 4.775 9.51667 4.95 9.5 5.15C9.5 5.35 9.425 5.525 9.275 5.675C9.125 5.825 8.95 5.9 8.75 5.9C8.55 5.9 8.375 5.825 8.225 5.675L5.925 3.375V9.9C5.925 10.1167 5.85 10.3 5.7 10.45C5.55 10.5833 5.375 10.65 5.175 10.65ZM10.85 19.125C10.7333 19.125 10.6167 19.1083 10.5 19.075C10.4 19.025 10.3 18.95 10.2 18.85L6.7 15.375C6.55 15.225 6.475 15.05 6.475 14.85C6.49167 14.65 6.575 14.475 6.725 14.325C6.875 14.175 7.05 14.1 7.25 14.1C7.45 14.0833 7.625 14.1583 7.775 14.325L10.075 16.625V10.075C10.075 9.875 10.15 9.70833 10.3 9.575C10.45 9.425 10.625 9.35 10.825 9.35C11.0417 9.35 11.2167 9.425 11.35 9.575C11.5 9.70833 11.575 9.88333 11.575 10.1V16.625L13.9 14.3C14.0333 14.1667 14.2 14.1 14.4 14.1C14.6167 14.1 14.8 14.175 14.95 14.325C15.1 14.475 15.175 14.65 15.175 14.85C15.175 15.05 15.1 15.2333 14.95 15.4L11.475 18.85C11.3917 18.95 11.2917 19.025 11.175 19.075C11.075 19.1083 10.9667 19.125 10.85 19.125Z" fill="black"/>
</svg>
