<svg width="24" height="24" viewBox="0 0 24 24" fill="none" xmlns="http://www.w3.org/2000/svg">
<path d="M18.975 15.175C19.125 15.025 19.3 14.95 19.5 14.95C19.7167 14.95 19.9 15.025 20.05 15.175L21.625 16.775C21.775 16.925 21.85 17.1 21.85 17.3C21.85 17.5 21.775 17.675 21.625 17.825C21.475 17.975 21.3 18.05 21.1 18.05C20.9 18.05 20.725 17.975 20.575 17.825L18.975 16.25C18.825 16.1 18.75 15.925 18.75 15.725C18.75 15.5083 18.825 15.325 18.975 15.175ZM19.825 3.375C19.975 3.525 20.05 3.7 20.05 3.9C20.05 4.1 19.975 4.275 19.825 4.425L18.25 6.025C18.1 6.175 17.9167 6.25 17.7 6.25C17.5 6.25 17.325 6.175 17.175 6.025C17.025 5.875 16.95 5.7 16.95 5.5C16.95 5.28333 17.025 5.1 17.175 4.95L18.775 3.375C18.925 3.225 19.1 3.15 19.3 3.15C19.5 3.15 19.675 3.225 19.825 3.375ZM4.175 3.375C4.325 3.225 4.5 3.15 4.7 3.15C4.91667 3.15 5.1 3.225 5.25 3.375L6.825 4.975C6.975 5.125 7.05 5.3 7.05 5.5C7.05 5.7 6.975 5.875 6.825 6.025C6.675 6.175 6.49167 6.25 6.275 6.25C6.075 6.25 5.9 6.175 5.75 6.025L4.175 4.425C4.025 4.275 3.95 4.1 3.95 3.9C3.95 3.7 4.025 3.525 4.175 3.375ZM5.025 15.175C5.175 15.325 5.25 15.5083 5.25 15.725C5.25 15.925 5.175 16.1 5.025 16.25L3.425 17.825C3.275 17.975 3.1 18.05 2.9 18.05C2.7 18.05 2.525 17.975 2.375 17.825C2.225 17.675 2.15 17.5 2.15 17.3C2.15 17.0833 2.225 16.9 2.375 16.75L3.975 15.175C4.125 15.025 4.3 14.95 4.5 14.95C4.7 14.95 4.875 15.025 5.025 15.175ZM8.4 17.35L12 15.2L15.6 17.4L14.65 13.3L17.825 10.575L13.65 10.2L12 6.325L10.35 10.175L6.2 10.525L9.35 13.3L8.4 17.35ZM12 16.975L7.675 19.575C7.525 19.6583 7.375 19.6917 7.225 19.675C7.09167 19.6583 6.95833 19.6083 6.825 19.525C6.70833 19.4417 6.61667 19.3333 6.55 19.2C6.5 19.0667 6.49167 18.9167 6.525 18.75L7.675 13.85L3.85 10.55C3.71667 10.4333 3.63333 10.3 3.6 10.15C3.58333 10 3.6 9.85833 3.65 9.725C3.7 9.59167 3.775 9.48333 3.875 9.4C3.975 9.3 4.11667 9.24167 4.3 9.225L9.325 8.775L11.3 4.15C11.3667 4 11.4583 3.89167 11.575 3.825C11.7083 3.74167 11.85 3.7 12 3.7C12.15 3.7 12.2833 3.74167 12.4 3.825C12.5333 3.89167 12.6333 4 12.7 4.15L14.675 8.775L19.725 9.225C19.8917 9.24167 20.025 9.3 20.125 9.4C20.2417 9.48333 20.325 9.59167 20.375 9.725C20.425 9.85833 20.4333 10 20.4 10.15C20.3667 10.3 20.2833 10.4333 20.15 10.55L16.325 13.85L17.475 18.75C17.525 18.9167 17.5167 19.0667 17.45 19.2C17.3833 19.3333 17.2917 19.4417 17.175 19.525C17.0583 19.6083 16.925 19.6583 16.775 19.675C16.625 19.6917 16.4833 19.6583 16.35 19.575L12 16.975Z" fill="white"/>
</svg>
