<svg width="10" height="10" viewBox="0 0 10 10" fill="none" xmlns="http://www.w3.org/2000/svg">
<path d="M4.25 5.75H0.75C0.541667 5.75 0.361112 5.68055 0.208334 5.54167C0.0694446 5.38889 0 5.20833 0 5C0 4.79167 0.0694446 4.61806 0.208334 4.47917C0.361112 4.32639 0.541667 4.25 0.75 4.25H4.25V0.749999C4.25 0.541666 4.31945 0.368055 4.45833 0.229166C4.61111 0.0763877 4.79167 -1.19209e-06 5 -1.19209e-06C5.20833 -1.19209e-06 5.38194 0.0763877 5.52083 0.229166C5.67361 0.368055 5.75 0.541666 5.75 0.749999V4.25H9.25C9.45833 4.25 9.63195 4.32639 9.77083 4.47917C9.92361 4.61806 10 4.79167 10 5C10 5.20833 9.92361 5.38889 9.77083 5.54167C9.63195 5.68055 9.45833 5.75 9.25 5.75H5.75V9.25C5.75 9.45833 5.67361 9.63889 5.52083 9.79167C5.38194 9.93056 5.20833 10 5 10C4.79167 10 4.61111 9.93056 4.45833 9.79167C4.31945 9.63889 4.25 9.45833 4.25 9.25V5.75Z" fill="#020618"/>
</svg>
