<svg width="16" height="12" viewBox="0 0 16 12" fill="none" xmlns="http://www.w3.org/2000/svg">
<path d="M1.5 12C1.09722 12 0.743056 11.8542 0.4375 11.5625C0.145833 11.2569 1.78814e-07 10.9028 1.78814e-07 10.5V1.5C1.78814e-07 1.09722 0.145833 0.749999 0.4375 0.458332C0.743056 0.152776 1.09722 -1.43051e-06 1.5 -1.43051e-06H14.5C14.9167 -1.43051e-06 15.2708 0.152776 15.5625 0.458332C15.8542 0.749999 16 1.09722 16 1.5V10.5C16 10.9028 15.8542 11.2569 15.5625 11.5625C15.2708 11.8542 14.9167 12 14.5 12H1.5ZM14.5 3.27083L8.39583 6.77083C8.32639 6.8125 8.25694 6.84722 8.1875 6.875C8.13195 6.88889 8.06944 6.89583 8 6.89583C7.93056 6.89583 7.86806 6.88889 7.8125 6.875C7.75694 6.84722 7.69444 6.8125 7.625 6.77083L1.5 3.27083V10.5H14.5V3.27083ZM8 5.22917L14.4792 1.5H1.54167L8 5.22917ZM1.5 3V3.1875C1.5 3.13194 1.5 3.05555 1.5 2.95833C1.5 2.86111 1.5 2.75694 1.5 2.64583C1.5 2.40972 1.5 2.22917 1.5 2.10417C1.5 1.96528 1.5 1.96528 1.5 2.10417V1.5V2.10417C1.5 1.96528 1.5 1.96528 1.5 2.10417C1.5 2.22917 1.5 2.40972 1.5 2.64583C1.5 2.77083 1.5 2.88194 1.5 2.97917C1.5 3.07639 1.5 3.14583 1.5 3.1875V3V10.5V3Z" fill="#020618"/>
</svg>
