<svg width="14" height="16" viewBox="0 0 14 16" fill="none" xmlns="http://www.w3.org/2000/svg">
<path d="M6 8.5V9.9375C6 10.1042 6.04861 10.2431 6.14583 10.3542C6.25694 10.4514 6.39583 10.5 6.5625 10.5H7.4375C7.61806 10.5 7.75695 10.4514 7.85417 10.3542C7.95139 10.2431 8 10.1042 8 9.9375V8.5H9.4375C9.61806 8.5 9.75694 8.45139 9.85417 8.35417C9.95139 8.24306 10 8.10417 10 7.9375V7.0625C10 6.88194 9.95139 6.74305 9.85417 6.64583C9.75694 6.54861 9.61806 6.5 9.4375 6.5H8V5.0625C8 4.88194 7.95139 4.74305 7.85417 4.64583C7.75695 4.54861 7.61806 4.5 7.4375 4.5H6.5625C6.39583 4.5 6.25694 4.54861 6.14583 4.64583C6.04861 4.74305 6 4.88194 6 5.0625V6.5H4.5625C4.39583 6.5 4.25694 6.54861 4.14583 6.64583C4.04861 6.74305 4 6.88194 4 7.0625V7.9375C4 8.10417 4.04861 8.24306 4.14583 8.35417C4.25694 8.45139 4.39583 8.5 4.5625 8.5H6ZM7 15.9167C6.91667 15.9167 6.83333 15.9167 6.75 15.9167C6.66667 15.9028 6.59028 15.8819 6.52083 15.8542C4.70139 15.2569 3.24306 14.1528 2.14583 12.5417C1.04861 10.9306 0.5 9.17361 0.5 7.27083V3.52083C0.5 3.20139 0.583334 2.91667 0.75 2.66667C0.930556 2.41667 1.16667 2.23611 1.45833 2.125L6.45833 0.208332C6.63889 0.138888 6.81944 0.104166 7 0.104166C7.18056 0.104166 7.36111 0.138888 7.54167 0.208332L12.5417 2.125C12.8333 2.23611 13.0625 2.41667 13.2292 2.66667C13.4097 2.91667 13.5 3.20139 13.5 3.52083V7.27083C13.5 9.17361 12.9514 10.9306 11.8542 12.5417C10.7569 14.1528 9.29861 15.2569 7.47917 15.8542C7.40972 15.8819 7.33333 15.9028 7.25 15.9167C7.16667 15.9167 7.08333 15.9167 7 15.9167ZM7 14.4375C8.44444 13.9931 9.63889 13.0972 10.5833 11.75C11.5278 10.4028 12 8.90972 12 7.27083V3.52083L7 1.60417L2 3.52083V7.27083C2 8.90972 2.47222 10.4028 3.41667 11.75C4.36111 13.0972 5.55556 13.9931 7 14.4375Z" fill="#020618"/>
</svg>
