<svg width="12" height="16" viewBox="0 0 12 16" fill="none" xmlns="http://www.w3.org/2000/svg">
<path d="M6 11.6042C7.33333 10.5069 8.33333 9.45833 9 8.45833C9.66667 7.44444 10 6.5 10 5.625C10 4.43055 9.625 3.44444 8.875 2.66667C8.13889 1.88889 7.18056 1.5 6 1.5C4.81944 1.5 3.85417 1.88889 3.10417 2.66667C2.36806 3.44444 2 4.43055 2 5.625C2 6.48611 2.33333 7.41667 3 8.41667C3.66667 9.41667 4.66667 10.4792 6 11.6042ZM6 13.125C5.84722 13.125 5.69444 13.1042 5.54167 13.0625C5.40278 13.0208 5.27083 12.9444 5.14583 12.8333C3.59028 11.5556 2.42361 10.3194 1.64583 9.125C0.881945 7.93056 0.5 6.76389 0.5 5.625C0.5 3.98611 1.00694 2.63889 2.02083 1.58333C3.04861 0.527777 4.375 -7.15256e-07 6 -7.15256e-07C7.625 -7.15256e-07 8.94445 0.527777 9.95833 1.58333C10.9861 2.63889 11.5 3.98611 11.5 5.625C11.5 6.77778 11.1111 7.95139 10.3333 9.14583C9.56944 10.3403 8.40972 11.5694 6.85417 12.8333C6.72917 12.9444 6.59028 13.0208 6.4375 13.0625C6.28472 13.1042 6.13889 13.125 6 13.125ZM6 7C6.41667 7 6.77083 6.85417 7.0625 6.5625C7.35417 6.27083 7.5 5.91667 7.5 5.5C7.5 5.08333 7.35417 4.72917 7.0625 4.4375C6.77083 4.14583 6.41667 4 6 4C5.58333 4 5.22917 4.14583 4.9375 4.4375C4.64583 4.72917 4.5 5.08333 4.5 5.5C4.5 5.91667 4.64583 6.27083 4.9375 6.5625C5.22917 6.85417 5.58333 7 6 7ZM1.25 16C1.04167 16 0.861111 15.9306 0.708334 15.7917C0.569445 15.6389 0.5 15.4583 0.5 15.25C0.5 15.0417 0.569445 14.8681 0.708334 14.7292C0.861111 14.5764 1.04167 14.5 1.25 14.5H10.75C10.9583 14.5 11.1319 14.5764 11.2708 14.7292C11.4236 14.8681 11.5 15.0417 11.5 15.25C11.5 15.4583 11.4236 15.6389 11.2708 15.7917C11.1319 15.9306 10.9583 16 10.75 16H1.25Z" fill="#020618"/>
</svg>
