<svg width="24" height="24" viewBox="0 0 24 24" fill="none" xmlns="http://www.w3.org/2000/svg">
<path d="M17.8958 18.9792C16.2153 18.8542 14.6181 18.4444 13.1042 17.75C11.6042 17.0417 10.2569 16.0903 9.0625 14.8958C7.86806 13.7014 6.92361 12.3542 6.22917 10.8542C5.54861 9.35417 5.13889 7.76389 5 6.08333C4.97222 5.79167 5.05556 5.54167 5.25 5.33333C5.45833 5.11111 5.70833 5 6 5H8.83333C9.06945 5 9.27083 5.07639 9.4375 5.22917C9.61806 5.36805 9.73611 5.54861 9.79167 5.77083L10.2917 7.97917C10.3194 8.15972 10.3056 8.33333 10.25 8.5C10.2083 8.66667 10.1319 8.80556 10.0208 8.91667L8 10.9583C8.27778 11.4861 8.59722 11.9931 8.95833 12.4792C9.31945 12.9653 9.72222 13.4236 10.1667 13.8542C10.5833 14.2708 11.0278 14.6597 11.5 15.0208C11.9722 15.3681 12.4722 15.6806 13 15.9583L15.0625 13.9583C15.1736 13.8472 15.3125 13.7708 15.4792 13.7292C15.6458 13.6736 15.8194 13.6597 16 13.6875L18.2292 14.1667C18.4653 14.2361 18.6528 14.3611 18.7917 14.5417C18.9306 14.7083 19 14.9097 19 15.1458V17.9792C19 18.2708 18.8889 18.5208 18.6667 18.7292C18.4444 18.9236 18.1875 19.0069 17.8958 18.9792ZM7.3125 9.5L8.77083 8.04167L8.41667 6.5H6.54167C6.61111 7.02778 6.70833 7.54167 6.83333 8.04167C6.95833 8.52778 7.11806 9.01389 7.3125 9.5ZM14.4792 16.6667C14.9653 16.8611 15.4583 17.0208 15.9583 17.1458C16.4722 17.2569 16.9861 17.3472 17.5 17.4167V15.5417L15.9375 15.2083L14.4792 16.6667Z" fill="#020618"/>
</svg>
