<svg width="14" height="14" viewBox="0 0 14 14" fill="none" xmlns="http://www.w3.org/2000/svg">
<path d="M4.27083 14C3.09028 14 2.08333 13.5833 1.25 12.75C0.416667 11.9167 1.19209e-07 10.9097 1.19209e-07 9.72917C1.19209e-07 9.24305 0.076389 8.77083 0.229167 8.3125C0.395834 7.85417 0.625 7.4375 0.916667 7.0625L3.625 3.625L2.5625 1.04167C2.45139 0.791666 2.46528 0.555555 2.60417 0.333333C2.75694 0.111111 2.97222 -4.76837e-07 3.25 -4.76837e-07H10.75C11.0417 -4.76837e-07 11.2569 0.111111 11.3958 0.333333C11.5347 0.555555 11.5486 0.791666 11.4375 1.04167L10.3542 3.625L13.0833 7.0625C13.375 7.4375 13.5972 7.85417 13.75 8.3125C13.9167 8.77083 14 9.24305 14 9.72917C14 10.9097 13.5833 11.9167 12.75 12.75C11.9167 13.5833 10.9097 14 9.72917 14H4.27083ZM7 10.25C6.51389 10.25 6.09722 10.0833 5.75 9.75C5.41667 9.40278 5.25 8.98611 5.25 8.5C5.25 8.01389 5.41667 7.60417 5.75 7.27083C6.09722 6.92361 6.51389 6.75 7 6.75C7.48611 6.75 7.89583 6.92361 8.22917 7.27083C8.57639 7.60417 8.75 8.01389 8.75 8.5C8.75 8.98611 8.57639 9.40278 8.22917 9.75C7.89583 10.0833 7.48611 10.25 7 10.25ZM5 3H9L9.625 1.5H4.375L5 3ZM4.27083 12.5H9.72917C10.4931 12.5 11.1458 12.2292 11.6875 11.6875C12.2292 11.1458 12.5 10.4931 12.5 9.72917C12.5 9.40972 12.4444 9.10417 12.3333 8.8125C12.2361 8.52083 12.0903 8.25 11.8958 8L9.14583 4.5H4.85417L2.10417 8C1.90972 8.25 1.75694 8.52083 1.64583 8.8125C1.54861 9.10417 1.5 9.40972 1.5 9.72917C1.5 10.4931 1.77083 11.1458 2.3125 11.6875C2.85417 12.2292 3.50694 12.5 4.27083 12.5Z" fill="#020618"/>
</svg>
