<svg width="18" height="16" viewBox="0 0 18 16" fill="none" xmlns="http://www.w3.org/2000/svg">
<path d="M9.75 8.375V5.75C9.75 5.54167 9.67361 5.36806 9.52083 5.22917C9.38194 5.07639 9.20833 5 9 5C8.79167 5 8.61111 5.07639 8.45833 5.22917C8.31945 5.36806 8.25 5.54167 8.25 5.75V8.6875C8.25 8.79861 8.27083 8.90278 8.3125 9C8.35417 9.08333 8.40972 9.15972 8.47917 9.22917L10.5625 11.3125C10.7153 11.4653 10.8889 11.5417 11.0833 11.5417C11.2917 11.5278 11.4722 11.4444 11.625 11.2917C11.7778 11.1389 11.8542 10.9653 11.8542 10.7708C11.8542 10.5625 11.7778 10.3819 11.625 10.2292L9.75 8.375ZM9 16C8.02778 16 7.11806 15.8194 6.27083 15.4583C5.42361 15.0833 4.68056 14.5833 4.04167 13.9583C3.41667 13.3194 2.91667 12.5764 2.54167 11.7292C2.18056 10.8819 2 9.97222 2 9C2 8.02778 2.18056 7.11806 2.54167 6.27083C2.91667 5.42361 3.41667 4.6875 4.04167 4.0625C4.68056 3.42361 5.42361 2.92361 6.27083 2.5625C7.11806 2.1875 8.02778 2 9 2C9.97222 2 10.8819 2.1875 11.7292 2.5625C12.5764 2.92361 13.3125 3.42361 13.9375 4.0625C14.5764 4.6875 15.0764 5.42361 15.4375 6.27083C15.8125 7.11806 16 8.02778 16 9C16 9.97222 15.8125 10.8819 15.4375 11.7292C15.0764 12.5764 14.5764 13.3194 13.9375 13.9583C13.3125 14.5833 12.5764 15.0833 11.7292 15.4583C10.8819 15.8194 9.97222 16 9 16ZM0.9375 4.45833C0.784722 4.30555 0.708333 4.13194 0.708333 3.9375C0.708333 3.72917 0.784722 3.54861 0.9375 3.39583L3.41667 0.916666C3.56944 0.763888 3.74306 0.6875 3.9375 0.6875C4.14583 0.6875 4.32639 0.763888 4.47917 0.916666C4.63194 1.06944 4.70833 1.25 4.70833 1.45833C4.70833 1.65278 4.63194 1.82639 4.47917 1.97917L1.97917 4.47917C1.82639 4.63194 1.65278 4.70833 1.45833 4.70833C1.26389 4.69444 1.09028 4.61111 0.9375 4.45833ZM17.0833 4.45833C16.9306 4.61111 16.75 4.6875 16.5417 4.6875C16.3472 4.6875 16.1736 4.61111 16.0208 4.45833L13.5417 1.97917C13.3889 1.82639 13.3125 1.65278 13.3125 1.45833C13.3125 1.25 13.3889 1.06944 13.5417 0.916666C13.6944 0.763888 13.8681 0.6875 14.0625 0.6875C14.2708 0.6875 14.4514 0.763888 14.6042 0.916666L17.0833 3.41667C17.2361 3.56944 17.3125 3.74305 17.3125 3.9375C17.3125 4.13194 17.2361 4.30555 17.0833 4.45833ZM9 14.5C10.5278 14.5 11.8264 13.9653 12.8958 12.8958C13.9653 11.8264 14.5 10.5278 14.5 9C14.5 7.47222 13.9653 6.17361 12.8958 5.10417C11.8264 4.03472 10.5278 3.5 9 3.5C7.47222 3.5 6.17361 4.03472 5.10417 5.10417C4.03472 6.17361 3.5 7.47222 3.5 9C3.5 10.5278 4.03472 11.8264 5.10417 12.8958C6.17361 13.9653 7.47222 14.5 9 14.5Z" fill="#020618"/>
</svg>
