<svg width="18" height="20" viewBox="0 0 18 20" fill="none" xmlns="http://www.w3.org/2000/svg">
<path d="M4.375 14.8V5.2C4.375 4.98333 4.44167 4.80833 4.575 4.675C4.725 4.525 4.90833 4.45 5.125 4.45C5.34167 4.45 5.51667 4.525 5.65 4.675C5.8 4.80833 5.875 4.98333 5.875 5.2V14.8C5.875 15.0167 5.8 15.2 5.65 15.35C5.51667 15.4833 5.34167 15.55 5.125 15.55C4.90833 15.55 4.725 15.4833 4.575 15.35C4.44167 15.2 4.375 15.0167 4.375 14.8ZM8.25 18.75V1.25C8.25 1.03333 8.31667 0.858332 8.45 0.724998C8.6 0.574999 8.78333 0.499999 9 0.499999C9.21667 0.499999 9.39167 0.574999 9.525 0.724998C9.675 0.858332 9.75 1.03333 9.75 1.25V18.75C9.75 18.9667 9.675 19.15 9.525 19.3C9.39167 19.4333 9.21667 19.5 9 19.5C8.78333 19.5 8.6 19.4333 8.45 19.3C8.31667 19.15 8.25 18.9667 8.25 18.75ZM0.5 10.9V9.1C0.5 8.88333 0.566667 8.70833 0.7 8.575C0.85 8.425 1.03333 8.35 1.25 8.35C1.46667 8.35 1.64167 8.425 1.775 8.575C1.925 8.70833 2 8.88333 2 9.1V10.9C2 11.1167 1.925 11.3 1.775 11.45C1.64167 11.5833 1.46667 11.65 1.25 11.65C1.03333 11.65 0.85 11.5833 0.7 11.45C0.566667 11.3 0.5 11.1167 0.5 10.9ZM12.125 14.8V5.2C12.125 4.98333 12.1917 4.80833 12.325 4.675C12.475 4.525 12.6583 4.45 12.875 4.45C13.0917 4.45 13.2667 4.525 13.4 4.675C13.55 4.80833 13.625 4.98333 13.625 5.2V14.8C13.625 15.0167 13.55 15.2 13.4 15.35C13.2667 15.4833 13.0917 15.55 12.875 15.55C12.6583 15.55 12.475 15.4833 12.325 15.35C12.1917 15.2 12.125 15.0167 12.125 14.8ZM16 10.9V9.1C16 8.88333 16.0667 8.70833 16.2 8.575C16.35 8.425 16.5333 8.35 16.75 8.35C16.9667 8.35 17.1417 8.425 17.275 8.575C17.425 8.70833 17.5 8.88333 17.5 9.1V10.9C17.5 11.1167 17.425 11.3 17.275 11.45C17.1417 11.5833 16.9667 11.65 16.75 11.65C16.5333 11.65 16.35 11.5833 16.2 11.45C16.0667 11.3 16 11.1167 16 10.9Z" fill="#020618"/>
</svg>
