<svg width="40" height="40" viewBox="0 0 40 40" fill="none" xmlns="http://www.w3.org/2000/svg">
<rect width="40" height="40" rx="20" fill="#FFE83E"/>
<path d="M12.075 29.2C11.4417 29.2 10.9 28.9833 10.45 28.55C10.0167 28.1 9.8 27.5583 9.8 26.925V16.175C9.8 15.5417 10.0167 15.0083 10.45 14.575C10.9 14.125 11.4417 13.9 12.075 13.9H15.825V11.9C15.825 11.2667 16.0417 10.7333 16.475 10.3C16.925 9.85 17.4667 9.625 18.1 9.625H21.9C22.5333 9.625 23.0667 9.85 23.5 10.3C23.95 10.7333 24.175 11.2667 24.175 11.9V13.9H27.925C28.5583 13.9 29.0917 14.125 29.525 14.575C29.975 15.0083 30.2 15.5417 30.2 16.175V26.925C30.2 27.5583 29.975 28.1 29.525 28.55C29.0917 28.9833 28.5583 29.2 27.925 29.2H12.075ZM12.075 26.925H27.925V16.175H12.075V26.925ZM18.1 13.9H21.9V11.9H18.1V13.9ZM12.075 26.925V16.175V26.925Z" fill="#020618"/>
</svg>
