<svg width="40" height="40" viewBox="0 0 40 40" fill="none" xmlns="http://www.w3.org/2000/svg">
<rect width="40" height="40" rx="20" fill="white"/>
<path d="M12.3 28.5C11.8 28.5 11.375 28.325 11.025 27.975C10.675 27.625 10.5 27.2 10.5 26.7V16.3C10.5 15.8 10.675 15.375 11.025 15.025C11.375 14.675 11.8 14.5 12.3 14.5H16.5V12.8C16.5 12.3 16.675 11.875 17.025 11.525C17.375 11.175 17.8 11 18.3 11H21.7C22.2 11 22.625 11.175 22.975 11.525C23.325 11.875 23.5 12.3 23.5 12.8V14.5H27.7C28.2 14.5 28.625 14.675 28.975 15.025C29.325 15.375 29.5 15.8 29.5 16.3V26.7C29.5 27.2 29.325 27.625 28.975 27.975C28.625 28.325 28.2 28.5 27.7 28.5H12.3ZM12.3 27H27.7C27.7667 27 27.8333 26.9667 27.9 26.9C27.9667 26.8333 28 26.7667 28 26.7V16.3C28 16.2333 27.9667 16.1667 27.9 16.1C27.8333 16.0333 27.7667 16 27.7 16H12.3C12.2333 16 12.1667 16.0333 12.1 16.1C12.0333 16.1667 12 16.2333 12 16.3V26.7C12 26.7667 12.0333 26.8333 12.1 26.9C12.1667 26.9667 12.2333 27 12.3 27ZM18 14.5H22V12.8C22 12.7333 21.9667 12.6667 21.9 12.6C21.8333 12.5333 21.7667 12.5 21.7 12.5H18.3C18.2333 12.5 18.1667 12.5333 18.1 12.6C18.0333 12.6667 18 12.7333 18 12.8V14.5ZM12 27C12 27 12 26.9667 12 26.9C12 26.8333 12 26.7667 12 26.7V16.3C12 16.2333 12 16.1667 12 16.1C12 16.0333 12 16 12 16C12 16 12 16.0333 12 16.1C12 16.1667 12 16.2333 12 16.3V26.7C12 26.7667 12 26.8333 12 26.9C12 26.9667 12 27 12 27Z" fill="#020618"/>
</svg>
