<svg width="40" height="40" viewBox="0 0 40 40" fill="none" xmlns="http://www.w3.org/2000/svg">
<rect width="40" height="40" rx="20" fill="white"/>
<path d="M13.5 29.8C13.5 27.4833 13.975 25.6417 14.925 24.275C15.875 22.9083 17.1833 21.4833 18.85 20C17.1833 18.5167 15.875 17.0917 14.925 15.725C13.975 14.3583 13.5 12.5167 13.5 10.2V9.95C13.5 9.73333 13.5667 9.55833 13.7 9.425C13.85 9.275 14.0333 9.2 14.25 9.2C14.45 9.2 14.625 9.275 14.775 9.425C14.925 9.55833 15 9.73333 15 9.95V10.2C15 10.45 15 10.6917 15 10.925C15.0167 11.1583 15.05 11.3917 15.1 11.625H24.9C24.9333 11.3917 24.9583 11.1583 24.975 10.925C24.9917 10.6917 25 10.45 25 10.2V9.95C25 9.73333 25.0667 9.55833 25.2 9.425C25.35 9.275 25.5333 9.2 25.75 9.2C25.9667 9.2 26.1417 9.275 26.275 9.425C26.425 9.55833 26.5 9.73333 26.5 9.95V10.2C26.5 12.5167 26.025 14.3583 25.075 15.725C24.125 17.0917 22.8167 18.5167 21.15 20C22.8167 21.4667 24.125 22.8917 25.075 24.275C26.025 25.6417 26.5 27.4833 26.5 29.8V30.05C26.5 30.2667 26.425 30.45 26.275 30.6C26.1417 30.7333 25.9667 30.8 25.75 30.8C25.5333 30.8 25.35 30.7333 25.2 30.6C25.0667 30.45 25 30.2667 25 30.05V29.8C25 29.55 24.9917 29.3083 24.975 29.075C24.9583 28.8417 24.9333 28.6083 24.9 28.375H15.1C15.0667 28.6083 15.0417 28.8417 15.025 29.075C15.0083 29.3083 15 29.55 15 29.8V30.05C15 30.2667 14.925 30.45 14.775 30.6C14.6417 30.7333 14.4667 30.8 14.25 30.8C14.0333 30.8 13.85 30.7333 13.7 30.6C13.5667 30.45 13.5 30.2667 13.5 30.05V29.8ZM16.6 15.5H23.4C23.6667 15.1333 23.9 14.7583 24.1 14.375C24.3 13.9917 24.4667 13.575 24.6 13.125H15.4C15.5333 13.575 15.7 13.9917 15.9 14.375C16.1 14.7583 16.3333 15.1333 16.6 15.5ZM20 19.025C20.3833 18.675 20.75 18.3333 21.1 18C21.4667 17.6667 21.8083 17.3333 22.125 17H17.85C18.1667 17.3333 18.5083 17.6667 18.875 18C19.2417 18.3333 19.6167 18.675 20 19.025ZM17.875 23H22.125C21.8083 22.6667 21.4667 22.3333 21.1 22C20.75 21.6667 20.3833 21.325 20 20.975C19.6167 21.325 19.2417 21.6667 18.875 22C18.525 22.3333 18.1917 22.6667 17.875 23ZM15.4 26.875H24.6C24.45 26.425 24.275 26.0083 24.075 25.625C23.8917 25.2417 23.6667 24.8667 23.4 24.5H16.6C16.3333 24.8667 16.1 25.2417 15.9 25.625C15.7 26.0083 15.5333 26.425 15.4 26.875Z" fill="#020618"/>
</svg>
