<svg width="40" height="40" viewBox="0 0 40 40" fill="none" xmlns="http://www.w3.org/2000/svg">
<rect width="40" height="40" rx="20" fill="#FFE83E"/>
<path d="M12.85 30C12.85 27.6833 13.325 25.8083 14.275 24.375C15.2417 22.925 16.5667 21.4667 18.25 20C16.5667 18.5333 15.2417 17.0833 14.275 15.65C13.325 14.2 12.85 12.3167 12.85 10V9.75C12.85 9.43333 12.9583 9.16667 13.175 8.95C13.4083 8.71667 13.6833 8.6 14 8.6C14.3167 8.6 14.5833 8.71667 14.8 8.95C15.0333 9.16667 15.15 9.43333 15.15 9.75V10C15.15 10.1333 15.15 10.2667 15.15 10.4C15.15 10.5167 15.1583 10.6333 15.175 10.75H24.825C24.8417 10.6333 24.85 10.5167 24.85 10.4C24.85 10.2667 24.85 10.1333 24.85 10V9.75C24.85 9.43333 24.9583 9.16667 25.175 8.95C25.4083 8.71667 25.6833 8.6 26 8.6C26.3167 8.6 26.5833 8.71667 26.8 8.95C27.0333 9.16667 27.15 9.43333 27.15 9.75V10C27.15 12.3167 26.6667 14.2 25.7 15.65C24.75 17.0833 23.4333 18.5333 21.75 20C23.4333 21.4667 24.75 22.925 25.7 24.375C26.6667 25.8083 27.15 27.6833 27.15 30V30.25C27.15 30.5667 27.0333 30.8417 26.8 31.075C26.5833 31.2917 26.3167 31.4 26 31.4C25.6833 31.4 25.4083 31.2917 25.175 31.075C24.9583 30.8417 24.85 30.5667 24.85 30.25V30C24.85 29.8667 24.85 29.7417 24.85 29.625C24.85 29.4917 24.8417 29.3667 24.825 29.25H15.175C15.1583 29.3667 15.15 29.4917 15.15 29.625C15.15 29.7417 15.15 29.8667 15.15 30V30.25C15.15 30.5667 15.0333 30.8417 14.8 31.075C14.5833 31.2917 14.3167 31.4 14 31.4C13.6833 31.4 13.4083 31.2917 13.175 31.075C12.9583 30.8417 12.85 30.5667 12.85 30.25V30ZM16.425 14.675H23.575C23.775 14.3917 23.9417 14.1167 24.075 13.85C24.2083 13.5667 24.325 13.2583 24.425 12.925H15.575C15.675 13.2417 15.7917 13.5417 15.925 13.825C16.0583 14.1083 16.225 14.3917 16.425 14.675ZM20 18.525C20.3333 18.2417 20.6583 17.9583 20.975 17.675C21.2917 17.3917 21.5833 17.1083 21.85 16.825H18.15C18.4167 17.1083 18.7083 17.3917 19.025 17.675C19.3417 17.9583 19.6667 18.2417 20 18.525ZM18.15 23.175H21.85C21.5833 22.8917 21.2917 22.6083 20.975 22.325C20.6583 22.0417 20.3333 21.7583 20 21.475C19.6667 21.7583 19.3417 22.0417 19.025 22.325C18.7083 22.6083 18.4167 22.8917 18.15 23.175ZM15.575 27.075H24.425C24.325 26.7583 24.2083 26.4583 24.075 26.175C23.9417 25.8917 23.775 25.6083 23.575 25.325H16.425C16.225 25.6083 16.0583 25.8917 15.925 26.175C15.7917 26.4417 15.675 26.7417 15.575 27.075Z" fill="#020618"/>
</svg>
