<svg width="40" height="40" viewBox="0 0 40 40" fill="none" xmlns="http://www.w3.org/2000/svg">
<rect width="40" height="40" rx="20" fill="white"/>
<path d="M14.25 21.3L19.85 24.525C19.9 24.5583 19.95 24.575 20 24.575C20.05 24.575 20.1 24.5583 20.15 24.525L25.725 21.3L20.75 18.425V21.75H19.25V18.425L14.25 21.3ZM19.25 16.7V15.9C18.6 15.7333 18.0583 15.3833 17.625 14.85C17.2083 14.3167 17 13.7 17 13C17 12.1667 17.2917 11.4583 17.875 10.875C18.4583 10.2917 19.1667 10 20 10C20.8333 10 21.5417 10.2917 22.125 10.875C22.7083 11.4583 23 12.1667 23 13C23 13.7 22.7833 14.3167 22.35 14.85C21.9333 15.3833 21.4 15.7333 20.75 15.9V16.7L27.6 20.65C27.8833 20.8167 28.1 21.0417 28.25 21.325C28.4167 21.5917 28.5 21.8917 28.5 22.225V23.775C28.5 24.1083 28.4167 24.4167 28.25 24.7C28.1 24.9667 27.8833 25.1833 27.6 25.35L20.9 29.2C20.6167 29.3667 20.3167 29.45 20 29.45C19.6833 29.45 19.3833 29.3667 19.1 29.2L12.4 25.35C12.1167 25.1833 11.8917 24.9667 11.725 24.7C11.575 24.4167 11.5 24.1083 11.5 23.775V22.225C11.5 21.8917 11.575 21.5917 11.725 21.325C11.8917 21.0417 12.1167 20.8167 12.4 20.65L19.25 16.7ZM19.1 25.825L13 22.325V23.775C13 23.825 13.0083 23.875 13.025 23.925C13.0583 23.975 13.1 24.0167 13.15 24.05L19.85 27.925C19.9 27.9417 19.95 27.95 20 27.95C20.05 27.95 20.1 27.9417 20.15 27.925L26.85 24.05C26.9 24.0167 26.9333 23.975 26.95 23.925C26.9833 23.875 27 23.825 27 23.775V22.325L20.9 25.825C20.6167 25.9917 20.3167 26.075 20 26.075C19.6833 26.075 19.3833 25.9917 19.1 25.825ZM20 14.5C20.4167 14.5 20.7667 14.3583 21.05 14.075C21.35 13.775 21.5 13.4167 21.5 13C21.5 12.5833 21.35 12.2333 21.05 11.95C20.7667 11.65 20.4167 11.5 20 11.5C19.5833 11.5 19.225 11.65 18.925 11.95C18.6417 12.2333 18.5 12.5833 18.5 13C18.5 13.4167 18.6417 13.775 18.925 14.075C19.225 14.3583 19.5833 14.5 20 14.5Z" fill="#020618"/>
</svg>
