<svg width="40" height="40" viewBox="0 0 40 40" fill="none" xmlns="http://www.w3.org/2000/svg">
<rect width="40" height="40" rx="20" fill="#FFE83E"/>
<path d="M15.05 21.025L20 23.875L24.95 21.025L21.15 18.825V21.85H18.85V18.825L15.05 21.025ZM18.85 16.275V15.85C18.1167 15.6 17.5167 15.1667 17.05 14.55C16.5833 13.9333 16.35 13.2167 16.35 12.4C16.35 11.4 16.7083 10.5417 17.425 9.825C18.1417 9.10833 19 8.75 20 8.75C21 8.75 21.8583 9.10833 22.575 9.825C23.2917 10.5417 23.65 11.4 23.65 12.4C23.65 13.2167 23.4167 13.9333 22.95 14.55C22.4833 15.1667 21.8833 15.6 21.15 15.85V16.275L28.075 20.25C28.425 20.4667 28.7 20.75 28.9 21.1C29.1 21.45 29.2 21.8333 29.2 22.25V24.075C29.2 24.475 29.1 24.8583 28.9 25.225C28.7 25.575 28.425 25.85 28.075 26.05L21.15 30.025C20.7833 30.2417 20.4 30.35 20 30.35C19.6 30.35 19.2167 30.2417 18.85 30.025L11.925 26.05C11.575 25.85 11.3 25.575 11.1 25.225C10.9 24.8583 10.8 24.475 10.8 24.075V22.25C10.8 21.8333 10.9 21.45 11.1 21.1C11.3 20.75 11.575 20.4667 11.925 20.25L18.85 16.275ZM18.85 25.775L13 22.425V24.1L20 28.15L27 24.1V22.425L21.15 25.775C20.7833 25.9917 20.4 26.1 20 26.1C19.6 26.1 19.2167 25.9917 18.85 25.775ZM20 13.75C20.3833 13.75 20.7 13.625 20.95 13.375C21.2167 13.1083 21.35 12.7833 21.35 12.4C21.35 12.0167 21.2167 11.6917 20.95 11.425C20.7 11.1583 20.3833 11.025 20 11.025C19.6167 11.025 19.2917 11.1583 19.025 11.425C18.775 11.6917 18.65 12.0167 18.65 12.4C18.65 12.7833 18.775 13.1083 19.025 13.375C19.2917 13.625 19.6167 13.75 20 13.75Z" fill="#020618"/>
</svg>
