<svg width="40" height="40" viewBox="0 0 40 40" fill="none" xmlns="http://www.w3.org/2000/svg">
<rect width="40" height="40" rx="20" fill="white"/>
<path d="M19.975 28.5C17.975 28.5 16.2083 27.8917 14.675 26.675C13.1417 25.4417 12.1583 23.8667 11.725 21.95C11.6583 21.75 11.6833 21.5667 11.8 21.4C11.9333 21.2333 12.1083 21.1333 12.325 21.1C12.525 21.0833 12.7 21.1333 12.85 21.25C13.0167 21.35 13.1333 21.5 13.2 21.7C13.5833 23.25 14.4 24.525 15.65 25.525C16.9167 26.5083 18.3583 27 19.975 27C21.925 27 23.575 26.325 24.925 24.975C26.2917 23.6083 26.975 21.95 26.975 20C26.975 18.05 26.2917 16.4 24.925 15.05C23.575 13.6833 21.925 13 19.975 13C18.8917 13 17.8667 13.2417 16.9 13.725C15.95 14.2083 15.1333 14.875 14.45 15.725H16.3C16.5167 15.725 16.6917 15.8 16.825 15.95C16.975 16.0833 17.05 16.2583 17.05 16.475C17.05 16.6917 16.975 16.875 16.825 17.025C16.6917 17.1583 16.5167 17.225 16.3 17.225H12.875C12.625 17.225 12.4083 17.1417 12.225 16.975C12.0583 16.7917 11.975 16.575 11.975 16.325V12.9C11.975 12.6833 12.0417 12.5083 12.175 12.375C12.325 12.225 12.5083 12.15 12.725 12.15C12.9417 12.15 13.1167 12.225 13.25 12.375C13.4 12.5083 13.475 12.6833 13.475 12.9V14.525C14.2917 13.5583 15.2667 12.8167 16.4 12.3C17.5333 11.7667 18.725 11.5 19.975 11.5C21.1583 11.5 22.2667 11.725 23.3 12.175C24.3333 12.625 25.2333 13.2333 26 14C26.7667 14.7667 27.3667 15.6667 27.8 16.7C28.25 17.7167 28.475 18.8167 28.475 20C28.475 21.1833 28.25 22.2917 27.8 23.325C27.3667 24.3417 26.7667 25.2333 26 26C25.2333 26.7667 24.3333 27.375 23.3 27.825C22.2667 28.275 21.1583 28.5 19.975 28.5ZM20.75 19.7L23.5 22.45C23.65 22.5833 23.725 22.7583 23.725 22.975C23.725 23.175 23.65 23.35 23.5 23.5C23.3667 23.65 23.1917 23.725 22.975 23.725C22.775 23.725 22.6 23.65 22.45 23.5L19.525 20.575C19.4417 20.475 19.375 20.375 19.325 20.275C19.275 20.1583 19.25 20.0417 19.25 19.925V15.75C19.25 15.5333 19.325 15.3583 19.475 15.225C19.625 15.075 19.8 15 20 15C20.2167 15 20.3917 15.075 20.525 15.225C20.675 15.3583 20.75 15.5333 20.75 15.75V19.7Z" fill="#020618"/>
</svg>
