<svg width="40" height="40" viewBox="0 0 40 40" fill="none" xmlns="http://www.w3.org/2000/svg">
<rect width="40" height="40" rx="20" fill="#FFE83E"/>
<path d="M20 29.2C17.8667 29.2 15.975 28.5583 14.325 27.275C12.675 25.9917 11.6 24.35 11.1 22.35C11.0167 22.0667 11.0667 21.8083 11.25 21.575C11.45 21.3417 11.7083 21.2083 12.025 21.175C12.325 21.125 12.6 21.175 12.85 21.325C13.1 21.475 13.275 21.7 13.375 22C13.7917 23.45 14.6083 24.6333 15.825 25.55C17.0583 26.4667 18.45 26.925 20 26.925C21.9167 26.925 23.55 26.2583 24.9 24.925C26.25 23.575 26.925 21.9333 26.925 20C26.925 18.0667 26.25 16.4333 24.9 15.1C23.55 13.75 21.9167 13.075 20 13.075C18.8833 13.075 17.8417 13.325 16.875 13.825C15.9083 14.325 15.0917 15.0167 14.425 15.9H15.95C16.25 15.9 16.5 16 16.7 16.2C16.9 16.4 17 16.65 17 16.95C17 17.25 16.9 17.5 16.7 17.7C16.5 17.9 16.25 18 15.95 18H11.975C11.6583 18 11.3917 17.8917 11.175 17.675C10.9583 17.4583 10.85 17.1833 10.85 16.85V12.9C10.85 12.6 10.95 12.35 11.15 12.15C11.35 11.95 11.6 11.85 11.9 11.85C12.1833 11.85 12.425 11.95 12.625 12.15C12.825 12.35 12.925 12.6 12.925 12.9V14.1C13.8083 13.05 14.8583 12.2417 16.075 11.675C17.3083 11.0917 18.6167 10.8 20 10.8C21.2667 10.8 22.4583 11.0417 23.575 11.525C24.6917 12.0083 25.6583 12.6667 26.475 13.5C27.3083 14.3167 27.9667 15.2917 28.45 16.425C28.95 17.5417 29.2 18.7333 29.2 20C29.2 21.2667 28.95 22.4667 28.45 23.6C27.9667 24.7167 27.3083 25.6917 26.475 26.525C25.6583 27.3417 24.6917 27.9917 23.575 28.475C22.4583 28.9583 21.2667 29.2 20 29.2ZM21.05 19.6L23.5 22.05C23.6833 22.2333 23.775 22.475 23.775 22.775C23.775 23.075 23.6833 23.3167 23.5 23.5C23.3 23.7 23.05 23.8 22.75 23.8C22.4667 23.8 22.225 23.7 22.025 23.5L19.3 20.775C19.1833 20.675 19.0917 20.5583 19.025 20.425C18.975 20.275 18.95 20.125 18.95 19.975V16.05C18.95 15.75 19.05 15.5 19.25 15.3C19.4667 15.1 19.7167 15 20 15C20.3 15 20.55 15.1 20.75 15.3C20.95 15.5 21.05 15.75 21.05 16.05V19.6Z" fill="#020618"/>
</svg>
