<svg width="40" height="40" viewBox="0 0 40 40" fill="none" xmlns="http://www.w3.org/2000/svg">
<rect width="40" height="40" rx="20" fill="white"/>
<path d="M16.65 23.925L21.3 22.5C21.6 22.4167 21.85 22.275 22.05 22.075C22.2667 21.8583 22.4167 21.6 22.5 21.3L23.925 16.65C23.975 16.4833 23.9333 16.3333 23.8 16.2C23.6667 16.0667 23.5167 16.025 23.35 16.075L18.7 17.5C18.4 17.5833 18.1417 17.7333 17.925 17.95C17.725 18.15 17.5833 18.4 17.5 18.7L16.075 23.35C16.025 23.5167 16.0667 23.6667 16.2 23.8C16.3333 23.9333 16.4833 23.975 16.65 23.925ZM20 21.3C19.6333 21.3 19.325 21.175 19.075 20.925C18.825 20.675 18.7 20.3667 18.7 20C18.7 19.6333 18.825 19.325 19.075 19.075C19.325 18.825 19.6333 18.7 20 18.7C20.3667 18.7 20.675 18.825 20.925 19.075C21.175 19.325 21.3 19.6333 21.3 20C21.3 20.3667 21.175 20.675 20.925 20.925C20.675 21.175 20.3667 21.3 20 21.3ZM20 29.5C18.6833 29.5 17.4417 29.25 16.275 28.75C15.125 28.25 14.125 27.575 13.275 26.725C12.425 25.875 11.75 24.875 11.25 23.725C10.75 22.5583 10.5 21.3167 10.5 20C10.5 18.6833 10.75 17.45 11.25 16.3C11.75 15.1333 12.425 14.125 13.275 13.275C14.125 12.425 15.125 11.75 16.275 11.25C17.4417 10.75 18.6833 10.5 20 10.5C21.3167 10.5 22.55 10.75 23.7 11.25C24.8667 11.75 25.875 12.425 26.725 13.275C27.575 14.125 28.25 15.1333 28.75 16.3C29.25 17.45 29.5 18.6833 29.5 20C29.5 21.3167 29.25 22.5583 28.75 23.725C28.25 24.875 27.575 25.875 26.725 26.725C25.875 27.575 24.8667 28.25 23.7 28.75C22.55 29.25 21.3167 29.5 20 29.5ZM20 28C22.2167 28 24.1 27.225 25.65 25.675C27.2167 24.1083 28 22.2167 28 20C28 17.7833 27.2167 15.9 25.65 14.35C24.1 12.7833 22.2167 12 20 12C17.7833 12 15.8917 12.7833 14.325 14.35C12.775 15.9 12 17.7833 12 20C12 22.2167 12.775 24.1083 14.325 25.675C15.8917 27.225 17.7833 28 20 28Z" fill="#020618"/>
</svg>
