<svg width="40" height="40" viewBox="0 0 40 40" fill="none" xmlns="http://www.w3.org/2000/svg">
<rect width="40" height="40" rx="20" fill="#FFE83E"/>
<path d="M16.5 24.2L21.275 22.9C21.675 22.7833 22.0167 22.5833 22.3 22.3C22.5833 22.0167 22.7833 21.675 22.9 21.275L24.2 16.5C24.25 16.3 24.1917 16.125 24.025 15.975C23.875 15.8083 23.7 15.75 23.5 15.8L18.725 17.1C18.325 17.2167 17.9833 17.4167 17.7 17.7C17.4167 17.9833 17.2167 18.325 17.1 18.725L15.8 23.5C15.75 23.7 15.8 23.8833 15.95 24.05C16.1167 24.2 16.3 24.25 16.5 24.2ZM20 21.375C19.6167 21.375 19.2917 21.2417 19.025 20.975C18.7583 20.7083 18.625 20.3833 18.625 20C18.625 19.6167 18.7583 19.2917 19.025 19.025C19.2917 18.7583 19.6167 18.625 20 18.625C20.3833 18.625 20.7083 18.7583 20.975 19.025C21.2417 19.2917 21.375 19.6167 21.375 20C21.375 20.3833 21.2417 20.7083 20.975 20.975C20.7083 21.2417 20.3833 21.375 20 21.375ZM20 30.2C18.5833 30.2 17.25 29.9333 16 29.4C14.7667 28.8667 13.6917 28.1417 12.775 27.225C11.8583 26.3083 11.1333 25.2333 10.6 24C10.0667 22.75 9.8 21.4167 9.8 20C9.8 18.5833 10.0667 17.2583 10.6 16.025C11.1333 14.775 11.8583 13.6917 12.775 12.775C13.6917 11.8583 14.7667 11.1333 16 10.6C17.25 10.0667 18.5833 9.8 20 9.8C21.4167 9.8 22.7417 10.0667 23.975 10.6C25.225 11.1333 26.3083 11.8583 27.225 12.775C28.1417 13.6917 28.8667 14.775 29.4 16.025C29.9333 17.2583 30.2 18.5833 30.2 20C30.2 21.4167 29.9333 22.75 29.4 24C28.8667 25.2333 28.1417 26.3083 27.225 27.225C26.3083 28.1417 25.225 28.8667 23.975 29.4C22.7417 29.9333 21.4167 30.2 20 30.2ZM20 27.925C22.2 27.925 24.0667 27.1583 25.6 25.625C27.15 24.075 27.925 22.2 27.925 20C27.925 17.8 27.15 15.9333 25.6 14.4C24.0667 12.85 22.2 12.075 20 12.075C17.8 12.075 15.925 12.85 14.375 14.4C12.8417 15.9333 12.075 17.8 12.075 20C12.075 22.2 12.8417 24.075 14.375 25.625C15.925 27.1583 17.8 27.925 20 27.925Z" fill="#020618"/>
</svg>
