<svg width="24" height="24" viewBox="0 0 24 24" fill="none" xmlns="http://www.w3.org/2000/svg">
<path d="M16.1 12.675L14.025 16.025C13.875 16.2583 13.6667 16.3583 13.4 16.325C13.1333 16.275 12.975 16.1167 12.925 15.85L12.175 12.875L5.075 19.975C4.94167 20.1083 4.76667 20.1833 4.55 20.2C4.35 20.2 4.175 20.125 4.025 19.975C3.875 19.825 3.8 19.65 3.8 19.45C3.8 19.2333 3.875 19.0583 4.025 18.925L11.125 11.8L8.15 11.05C7.88333 11 7.725 10.8417 7.675 10.575C7.64167 10.3083 7.74167 10.1 7.975 9.95L11.325 7.9L11.025 3.95C11.0083 3.66667 11.1167 3.46667 11.35 3.35C11.5833 3.21667 11.8083 3.24167 12.025 3.425L15.05 5.975L18.7 4.5C18.95 4.38333 19.1667 4.425 19.35 4.625C19.55 4.80833 19.6 5.025 19.5 5.275L18.025 8.95L20.575 11.95C20.7583 12.1667 20.7833 12.4 20.65 12.65C20.5333 12.8833 20.3417 12.9833 20.075 12.95L16.1 12.675ZM3.825 6.075C3.725 5.99167 3.675 5.89167 3.675 5.775C3.675 5.64167 3.725 5.53333 3.825 5.45L4.825 4.425C4.925 4.34167 5.03333 4.3 5.15 4.3C5.26667 4.3 5.375 4.34167 5.475 4.425L6.475 5.45C6.55833 5.53333 6.6 5.64167 6.6 5.775C6.6 5.89167 6.55833 5.99167 6.475 6.075L5.475 7.075C5.375 7.175 5.26667 7.225 5.15 7.225C5.03333 7.225 4.925 7.175 4.825 7.075L3.825 6.075ZM13.875 13.425L15.3 11.1L18.05 11.3L16.275 9.2L17.3 6.675L14.775 7.7L12.675 5.95L12.875 8.675L10.55 10.125L13.2 10.775L13.875 13.425ZM17.925 20.175L16.925 19.175C16.825 19.075 16.775 18.9667 16.775 18.85C16.775 18.7333 16.825 18.625 16.925 18.525L17.925 17.525C18.0083 17.4417 18.1083 17.4 18.225 17.4C18.3583 17.4 18.4667 17.4417 18.55 17.525L19.575 18.525C19.6583 18.625 19.7 18.7333 19.7 18.85C19.7 18.9667 19.6583 19.075 19.575 19.175L18.55 20.175C18.4667 20.275 18.3583 20.325 18.225 20.325C18.1083 20.325 18.0083 20.275 17.925 20.175Z" fill="#020618"/>
</svg>
