<svg width="24" height="24" viewBox="0 0 24 24" fill="none" xmlns="http://www.w3.org/2000/svg">
<path d="M18.2 21.725C17.9833 21.725 17.8 21.6583 17.65 21.525C17.5167 21.375 17.45 21.1917 17.45 20.975C17.45 20.875 17.4667 20.775 17.5 20.675C17.55 20.575 17.6 20.4917 17.65 20.425C18.3833 19.7083 18.95 18.8833 19.35 17.95C19.75 17.0167 19.95 16.0167 19.95 14.95C19.95 13.8833 19.75 12.8833 19.35 11.95C18.95 11.0167 18.3833 10.1833 17.65 9.45C17.6 9.4 17.55 9.325 17.5 9.225C17.4667 9.125 17.45 9.025 17.45 8.925C17.45 8.70833 17.5167 8.53333 17.65 8.4C17.8 8.25 17.9833 8.175 18.2 8.175C18.3 8.175 18.3917 8.2 18.475 8.25C18.575 8.28333 18.6583 8.33333 18.725 8.4C19.5917 9.25 20.2583 10.2417 20.725 11.375C21.2083 12.4917 21.45 13.6833 21.45 14.95C21.45 16.2167 21.2083 17.4083 20.725 18.525C20.2583 19.6417 19.5917 20.6333 18.725 21.5C18.6583 21.5667 18.575 21.625 18.475 21.675C18.3917 21.7083 18.3 21.725 18.2 21.725ZM15.575 19.1C15.3583 19.1 15.175 19.025 15.025 18.875C14.8917 18.725 14.825 18.55 14.825 18.35C14.825 18.25 14.8417 18.15 14.875 18.05C14.925 17.95 14.9833 17.875 15.05 17.825C15.4333 17.4417 15.725 17.0083 15.925 16.525C16.1417 16.025 16.25 15.5 16.25 14.95C16.25 14.4 16.1417 13.8833 15.925 13.4C15.7083 12.9 15.4167 12.4583 15.05 12.075C14.9667 12.0083 14.9083 11.9333 14.875 11.85C14.8417 11.75 14.825 11.65 14.825 11.55C14.825 11.3333 14.8917 11.1583 15.025 11.025C15.175 10.875 15.3583 10.8 15.575 10.8C15.675 10.8 15.775 10.8167 15.875 10.85C15.975 10.8833 16.0583 10.9417 16.125 11.025C16.625 11.525 17.0167 12.1167 17.3 12.8C17.6 13.4667 17.75 14.1833 17.75 14.95C17.75 15.7 17.6 16.4167 17.3 17.1C17.0167 17.7667 16.625 18.3583 16.125 18.875C16.0583 18.9417 15.975 19 15.875 19.05C15.775 19.0833 15.675 19.1 15.575 19.1ZM8.25 14.85H6V15.25C6 15.85 6.19167 16.375 6.575 16.825C6.95833 17.2583 7.44167 17.55 8.025 17.7L8.325 17.775C8.90833 17.925 9.23333 18.3167 9.3 18.95C9.36667 19.5667 9.10833 20.0167 8.525 20.3C7.69167 20.7167 6.83333 21.0083 5.95 21.175C5.06667 21.3417 4.16667 21.4417 3.25 21.475C3.03333 21.4917 2.85 21.4333 2.7 21.3C2.56667 21.15 2.5 20.9667 2.5 20.75C2.5 20.5333 2.56667 20.3583 2.7 20.225C2.85 20.075 3.03333 19.9917 3.25 19.975C3.91667 19.9583 4.575 19.9 5.225 19.8C5.875 19.7 6.51667 19.5333 7.15 19.3C7.23333 19.2667 7.26667 19.2083 7.25 19.125C7.25 19.025 7.2 18.9667 7.1 18.95C6.31667 18.6333 5.68333 18.1417 5.2 17.475C4.73333 16.8083 4.5 16.0583 4.5 15.225V14.25C4.5 14 4.58333 13.7917 4.75 13.625C4.93333 13.4417 5.15 13.35 5.4 13.35H8.2C8.28333 13.35 8.35 13.325 8.4 13.275C8.46667 13.2083 8.5 13.1333 8.5 13.05V11.35C8.5 11.0833 8.58333 10.8667 8.75 10.7C8.93333 10.5333 9.15 10.45 9.4 10.45H11.525C11.6417 10.45 11.725 10.4083 11.775 10.325C11.8417 10.225 11.85 10.1167 11.8 10L9.1 4.525C9.01667 4.325 9.00833 4.13333 9.075 3.95C9.14167 3.75 9.26667 3.6 9.45 3.5C9.63333 3.4 9.825 3.39167 10.025 3.475C10.225 3.54167 10.3667 3.66667 10.45 3.85L13.175 9.35C13.4583 9.95 13.425 10.5333 13.075 11.1C12.7417 11.6667 12.2333 11.95 11.55 11.95H10V13.1C10 13.5833 9.825 14 9.475 14.35C9.14167 14.6833 8.73333 14.85 8.25 14.85Z" fill="#020618"/>
</svg>
