<svg width="24" height="24" viewBox="0 0 24 24" fill="none" xmlns="http://www.w3.org/2000/svg">
<path d="M12 14.275L13.775 15.35C13.9417 15.45 14.1083 15.4417 14.275 15.325C14.4417 15.2083 14.5 15.05 14.45 14.85L13.975 12.825L15.575 11.45C15.725 11.3167 15.7667 11.1583 15.7 10.975C15.6333 10.7917 15.5 10.6917 15.3 10.675L13.225 10.5L12.4 8.6C12.3333 8.41667 12.2 8.325 12 8.325C11.8 8.325 11.6667 8.41667 11.6 8.6L10.775 10.5L8.7 10.675C8.5 10.6917 8.36667 10.7917 8.3 10.975C8.23333 11.1583 8.275 11.3167 8.425 11.45L10.025 12.825L9.55 14.85C9.5 15.05 9.55833 15.2083 9.725 15.325C9.89167 15.4417 10.0583 15.45 10.225 15.35L12 14.275ZM8.85 19.5H6.3C5.8 19.5 5.375 19.325 5.025 18.975C4.675 18.625 4.5 18.2 4.5 17.7V15.15L2.65 13.275C2.46667 13.0917 2.33333 12.8917 2.25 12.675C2.16667 12.4417 2.125 12.2167 2.125 12C2.125 11.7833 2.16667 11.5667 2.25 11.35C2.33333 11.1167 2.46667 10.9083 2.65 10.725L4.5 8.85V6.3C4.5 5.8 4.675 5.375 5.025 5.025C5.375 4.675 5.8 4.5 6.3 4.5H8.85L10.725 2.65C10.9083 2.46667 11.1083 2.33333 11.325 2.25C11.5583 2.16667 11.7833 2.125 12 2.125C12.2167 2.125 12.4333 2.16667 12.65 2.25C12.8833 2.33333 13.0917 2.46667 13.275 2.65L15.15 4.5H17.7C18.2 4.5 18.625 4.675 18.975 5.025C19.325 5.375 19.5 5.8 19.5 6.3V8.85L21.35 10.725C21.5333 10.9083 21.6667 11.1167 21.75 11.35C21.8333 11.5667 21.875 11.7833 21.875 12C21.875 12.2167 21.8333 12.4417 21.75 12.675C21.6667 12.8917 21.5333 13.0917 21.35 13.275L19.5 15.15V17.7C19.5 18.2 19.325 18.625 18.975 18.975C18.625 19.325 18.2 19.5 17.7 19.5H15.15L13.275 21.35C13.0917 21.5333 12.8833 21.6667 12.65 21.75C12.4333 21.8333 12.2167 21.875 12 21.875C11.7833 21.875 11.5583 21.8333 11.325 21.75C11.1083 21.6667 10.9083 21.5333 10.725 21.35L8.85 19.5ZM9.5 18L11.775 20.275C11.8417 20.3417 11.9167 20.375 12 20.375C12.0833 20.375 12.1583 20.3417 12.225 20.275L14.5 18H17.7C17.7833 18 17.85 17.975 17.9 17.925C17.9667 17.8583 18 17.7833 18 17.7V14.5L20.275 12.225C20.3417 12.1583 20.375 12.0833 20.375 12C20.375 11.9167 20.3417 11.8417 20.275 11.775L18 9.5V6.3C18 6.21667 17.9667 6.15 17.9 6.1C17.85 6.03333 17.7833 6 17.7 6H14.5L12.225 3.725C12.1583 3.65833 12.0833 3.625 12 3.625C11.9167 3.625 11.8417 3.65833 11.775 3.725L9.5 6H6.3C6.21667 6 6.14167 6.03333 6.075 6.1C6.025 6.15 6 6.21667 6 6.3V9.5L3.725 11.775C3.65833 11.8417 3.625 11.9167 3.625 12C3.625 12.0833 3.65833 12.1583 3.725 12.225L6 14.5V17.7C6 17.7833 6.025 17.8583 6.075 17.925C6.14167 17.975 6.21667 18 6.3 18H9.5Z" fill="#020618"/>
</svg>
