<svg width="16" height="16" viewBox="0 0 16 16" fill="none" xmlns="http://www.w3.org/2000/svg">
<path d="M12.9 15.5C12.65 15.5 12.4333 15.4167 12.25 15.25C12.0833 15.0667 12 14.85 12 14.6V10.5C12 10.25 12.0833 10.0417 12.25 9.875C12.4333 9.69167 12.65 9.6 12.9 9.6H14.6C14.85 9.6 15.0583 9.69167 15.225 9.875C15.4083 10.0417 15.5 10.25 15.5 10.5V14.6C15.5 14.85 15.4083 15.0667 15.225 15.25C15.0583 15.4167 14.85 15.5 14.6 15.5H12.9ZM7.15 15.5C6.9 15.5 6.68333 15.4167 6.5 15.25C6.33333 15.0667 6.25 14.85 6.25 14.6V1.4C6.25 1.15 6.33333 0.941666 6.5 0.774999C6.68333 0.591665 6.9 0.499999 7.15 0.499999H8.85C9.1 0.499999 9.30833 0.591665 9.475 0.774999C9.65833 0.941666 9.75 1.15 9.75 1.4V14.6C9.75 14.85 9.65833 15.0667 9.475 15.25C9.30833 15.4167 9.1 15.5 8.85 15.5H7.15ZM1.4 15.5C1.15 15.5 0.933334 15.4167 0.75 15.25C0.583334 15.0667 0.5 14.85 0.5 14.6V6.3C0.5 6.05 0.583334 5.84167 0.75 5.675C0.933334 5.49167 1.15 5.4 1.4 5.4H3.1C3.35 5.4 3.55833 5.49167 3.725 5.675C3.90833 5.84167 4 6.05 4 6.3V14.6C4 14.85 3.90833 15.0667 3.725 15.25C3.55833 15.4167 3.35 15.5 3.1 15.5H1.4Z" fill="#020618"/>
</svg>
