<svg width="80" height="36" viewBox="0 0 80 36" fill="none" xmlns="http://www.w3.org/2000/svg">
<g clip-path="url(#clip0_2488_3742)">
<path d="M21.117 24.9995H1.03137C0.742219 24.9995 0.50708 24.7666 0.50708 24.4786V5.85192C0.50708 5.56465 0.741561 5.33105 1.03137 5.33105H21.117C22.6655 5.33105 24.1119 5.48482 25.4569 5.79172C26.8019 6.09926 27.9881 6.61423 29.0136 7.33402C30.0392 8.05576 30.838 9.04907 31.4078 10.3192C31.9795 11.5892 32.2654 13.1931 32.2654 15.1358C32.2654 17.0786 31.9756 18.8034 31.3946 20.0807C30.813 21.36 30.0108 22.3598 28.9853 23.0796C27.9598 23.8014 26.7735 24.3006 25.4285 24.5788C24.0836 24.8569 22.647 24.9969 21.1183 24.9969V24.9989L21.117 24.9995ZM8.34439 11.9622V18.3638H20.3338C21.2046 18.3638 21.9212 18.3016 22.4811 18.1773C23.0429 18.0529 23.4578 17.7592 23.7299 17.2984C23.9999 16.8378 24.1369 16.116 24.1369 15.1358C24.1369 14.1556 24.0019 13.4731 23.7299 13.0294C23.4578 12.5878 23.0429 12.2986 22.4811 12.1644C21.9192 12.0303 21.2046 11.9622 20.3338 11.9622H8.34439Z" fill="#020618"/>
<path d="M62.0047 23.2228H78.9828C79.272 23.2228 79.5071 23.4558 79.5071 23.7437V29.3357C79.5071 29.623 79.2726 29.8566 78.9828 29.8566H54.1674C53.8782 29.8566 53.6431 29.6237 53.6431 29.3357V10.7084C53.6431 10.4211 53.8775 10.1875 54.1674 10.1875H60.9567C61.2459 10.1875 61.481 10.4204 61.481 10.7084V22.7019C61.481 22.9892 61.7155 23.2228 62.0054 23.2228H62.0047Z" fill="#020618"/>
<path d="M34.0049 10.6107V24.4789C34.0049 24.7662 34.2394 24.9998 34.5292 24.9998H40.7377C41.0268 24.9998 41.2619 24.7669 41.2619 24.4789V10.6107C41.2619 10.3234 41.0274 10.0898 40.7377 10.0898H34.5292C34.24 10.0898 34.0049 10.3228 34.0049 10.6107Z" fill="#020618"/>
<path d="M37.6334 8.35869C39.8334 8.35869 41.617 6.58672 41.617 4.40119C41.617 2.21566 39.8334 0.444336 37.6334 0.444336C35.4335 0.444336 33.6506 2.21631 33.6506 4.40185C33.6506 6.58737 35.4342 8.35935 37.6334 8.35935V8.35869Z" fill="#020618"/>
<path d="M51.3193 24.5766V10.7084C51.3193 10.4211 51.0849 10.1875 50.795 10.1875H44.5872C44.2981 10.1875 44.063 10.4204 44.063 10.7084V24.5766C44.063 24.8639 44.2974 25.0975 44.5872 25.0975H50.795C51.0842 25.0975 51.3193 24.8645 51.3193 24.5766Z" fill="#020618"/>
<path d="M52.2047 31.1864C50.1266 31.7191 48.4905 33.3451 47.9544 35.4096C47.9049 35.6046 47.6283 35.6046 47.5789 35.4096C47.0427 33.3445 45.4074 31.7191 43.3287 31.1864C43.1323 31.1368 43.1323 30.8626 43.3287 30.8128C45.4067 30.2802 47.0427 28.6515 47.5789 26.5896C47.6289 26.3946 47.9049 26.3946 47.9544 26.5896C48.4905 28.6548 50.1292 30.2802 52.2073 30.8161C52.4035 30.8658 52.4035 31.14 52.2073 31.1898L52.2047 31.1871V31.1864Z" fill="#020618"/>
</g>
<defs>
<clipPath id="clip0_2488_3742">
<rect width="78.9857" height="35.1111" fill="white" transform="translate(0.50708 0.444336)"/>
</clipPath>
</defs>
</svg>
