<svg width="48" height="36" viewBox="0 0 48 36" fill="none" xmlns="http://www.w3.org/2000/svg">
<g clip-path="url(#clip0_2488_3995)">
<g clip-path="url(#clip1_2488_3995)">
<g clip-path="url(#clip2_2488_3995)">
<path d="M13.418 12.0941V28.5789C13.418 28.9204 13.6946 29.198 14.0366 29.198H21.3621C21.7032 29.198 21.9807 28.9211 21.9807 28.5789V12.0941C21.9807 11.7527 21.704 11.4749 21.3621 11.4749H14.0366C13.6954 11.4749 13.418 11.7519 13.418 12.0941Z" fill="#020618"/>
<path d="M17.6995 9.41758C20.2952 9.41758 22.3997 7.31127 22.3997 4.71342C22.3997 2.11556 20.2952 0.0100403 17.6995 0.0100403C15.1038 0.0100403 13 2.11633 13 4.7142C13 7.31206 15.1045 9.41837 17.6995 9.41837V9.41758Z" fill="#020618"/>
<path d="M33.2821 22.9226V6.43783C33.2821 6.09638 33.0055 5.8187 32.6635 5.8187H25.3388C24.9976 5.8187 24.7202 6.09559 24.7202 6.43783V22.9226C24.7202 23.2641 24.9968 23.5417 25.3388 23.5417H32.6635C33.0047 23.5417 33.2821 23.2649 33.2821 22.9226Z" fill="#020618"/>
<path d="M34.3266 30.7793C31.8747 31.4125 29.9442 33.3453 29.3116 35.7993C29.2533 36.0311 28.9269 36.0311 28.8686 35.7993C28.236 33.3446 26.3064 31.4125 23.8536 30.7793C23.622 30.7202 23.622 30.3943 23.8536 30.3352C26.3056 29.7021 28.236 27.7662 28.8686 25.3153C28.9277 25.0835 29.2533 25.0835 29.3116 25.3153C29.9442 27.7701 31.8778 29.7021 34.3297 30.3391C34.5613 30.3982 34.5613 30.7241 34.3297 30.7832L34.3266 30.7801V30.7793Z" fill="#020618"/>
</g>
</g>
</g>
<defs>
<clipPath id="clip0_2488_3995">
<rect width="22" height="36" fill="white" transform="translate(13)"/>
</clipPath>
<clipPath id="clip1_2488_3995">
<rect width="22" height="36" fill="white" transform="translate(13)"/>
</clipPath>
<clipPath id="clip2_2488_3995">
<rect width="21.527" height="36" fill="white" transform="translate(13)"/>
</clipPath>
</defs>
</svg>
