<svg width="24" height="24" viewBox="0 0 24 24" fill="none" xmlns="http://www.w3.org/2000/svg">
<path d="M11.25 19V15.575C10.3833 15.4417 9.61667 15.1 8.95 14.55C8.3 14 7.85 13.3083 7.6 12.475C6.45 12.3417 5.475 11.85 4.675 11C3.89167 10.15 3.5 9.15 3.5 8V7.3C3.5 6.8 3.675 6.375 4.025 6.025C4.375 5.675 4.8 5.5 5.3 5.5H7.325V5.3C7.325 4.8 7.5 4.375 7.85 4.025C8.21667 3.675 8.64167 3.5 9.125 3.5H14.875C15.3583 3.5 15.775 3.675 16.125 4.025C16.4917 4.375 16.675 4.8 16.675 5.3V5.5H18.7C19.2 5.5 19.625 5.675 19.975 6.025C20.325 6.375 20.5 6.8 20.5 7.3V8C20.5 9.15 20.1 10.15 19.3 11C18.5167 11.85 17.55 12.3417 16.4 12.475C16.15 13.3083 15.6917 14 15.025 14.55C14.375 15.1 13.6167 15.4417 12.75 15.575V19H15.55C15.7667 19 15.9417 19.075 16.075 19.225C16.225 19.3583 16.3 19.5333 16.3 19.75C16.3 19.9667 16.225 20.15 16.075 20.3C15.9417 20.4333 15.7667 20.5 15.55 20.5H8.45C8.23333 20.5 8.05 20.4333 7.9 20.3C7.76667 20.15 7.7 19.9667 7.7 19.75C7.7 19.5333 7.76667 19.3583 7.9 19.225C8.05 19.075 8.23333 19 8.45 19H11.25ZM7.325 10.85V7H5.3C5.21667 7 5.14167 7.03333 5.075 7.1C5.025 7.15 5 7.21667 5 7.3V8C5 8.68333 5.21667 9.29167 5.65 9.825C6.08333 10.3583 6.64167 10.7 7.325 10.85ZM12 14.125C12.8833 14.125 13.625 13.825 14.225 13.225C14.8417 12.6083 15.15 11.8583 15.15 10.975V5.3C15.15 5.21667 15.1167 5.15 15.05 5.1C15 5.03333 14.9333 5 14.85 5H9.15C9.06667 5 8.99167 5.03333 8.925 5.1C8.875 5.15 8.85 5.21667 8.85 5.3V10.975C8.85 11.8583 9.15 12.6083 9.75 13.225C10.3667 13.825 11.1167 14.125 12 14.125ZM16.675 10.85C17.3583 10.7 17.9167 10.3583 18.35 9.825C18.7833 9.29167 19 8.68333 19 8V7.3C19 7.21667 18.9667 7.15 18.9 7.1C18.85 7.03333 18.7833 7 18.7 7H16.675V10.85Z" fill="#020618"/>
</svg>
