<svg width="12" height="12" viewBox="0 0 12 12" fill="none" xmlns="http://www.w3.org/2000/svg">
<path d="M5.4 10.4V8.33333C4.93333 8.24444 4.50556 8.06667 4.11667 7.8C3.73889 7.53333 3.43889 7.18889 3.21667 6.76667C2.41667 6.66667 1.74444 6.32222 1.2 5.73333C0.666667 5.13333 0.4 4.43333 0.4 3.63333V3.2C0.4 2.86667 0.516667 2.58333 0.75 2.35C0.983334 2.11667 1.26667 2 1.6 2H2.8V1.6C2.8 1.26667 2.91667 0.983333 3.15 0.749999C3.38333 0.516666 3.66667 0.4 4 0.4H8C8.33333 0.4 8.61667 0.516666 8.85 0.749999C9.08333 0.983333 9.2 1.26667 9.2 1.6V2H10.4C10.7333 2 11.0167 2.11667 11.25 2.35C11.4833 2.58333 11.6 2.86667 11.6 3.2V3.6C11.6 4.41111 11.3278 5.11667 10.7833 5.71667C10.25 6.31667 9.58333 6.66667 8.78333 6.76667C8.56111 7.18889 8.25556 7.53333 7.86667 7.8C7.48889 8.06667 7.06667 8.24444 6.6 8.33333V10.4H8.6C8.76667 10.4 8.90556 10.4611 9.01667 10.5833C9.13889 10.6944 9.2 10.8333 9.2 11C9.2 11.1667 9.13889 11.3111 9.01667 11.4333C8.90556 11.5444 8.76667 11.6 8.6 11.6H3.4C3.23333 11.6 3.08889 11.5444 2.96667 11.4333C2.85556 11.3111 2.8 11.1667 2.8 11C2.8 10.8333 2.85556 10.6944 2.96667 10.5833C3.08889 10.4611 3.23333 10.4 3.4 10.4H5.4ZM2.8 5.4V3.2H1.6V3.6C1.6 3.98889 1.70556 4.35 1.91667 4.68333C2.13889 5.00555 2.43333 5.24444 2.8 5.4ZM6 7.2C6.55556 7.2 7.02778 7.00556 7.41667 6.61667C7.80556 6.22778 8 5.75556 8 5.2V1.6H4V5.2C4 5.75556 4.19444 6.22778 4.58333 6.61667C4.97222 7.00556 5.44444 7.2 6 7.2ZM9.2 5.4C9.56667 5.24444 9.85556 5.00555 10.0667 4.68333C10.2889 4.35 10.4 3.98889 10.4 3.6V3.2H9.2V5.4Z" fill="white"/>
</svg>
