<svg width="24" height="24" viewBox="0 0 24 24" fill="none" xmlns="http://www.w3.org/2000/svg">
<path d="M12 21.5C9.9 21.5 8.125 20.775 6.675 19.325C5.225 17.875 4.5 16.1 4.5 14C4.5 12.3167 4.98333 10.675 5.95 9.075C6.93333 7.475 8.275 6.06667 9.975 4.85C10.2917 4.61667 10.625 4.6 10.975 4.8C11.3417 4.98333 11.525 5.275 11.525 5.675V6.5C11.525 7.11667 11.7667 7.65833 12.25 8.125C12.75 8.575 13.3417 8.8 14.025 8.8C14.325 8.8 14.6083 8.74167 14.875 8.625C15.1583 8.50833 15.4167 8.34167 15.65 8.125C15.7833 7.99167 15.9417 7.91667 16.125 7.9C16.3083 7.88333 16.475 7.93333 16.625 8.05C17.525 8.75 18.225 9.625 18.725 10.675C19.2417 11.725 19.5 12.8333 19.5 14C19.5 16.1 18.775 17.875 17.325 19.325C15.875 20.775 14.1 21.5 12 21.5ZM6 14C6 15 6.24167 15.9417 6.725 16.825C7.20833 17.6917 7.86667 18.3917 8.7 18.925C8.63333 18.775 8.58333 18.6333 8.55 18.5C8.51667 18.35 8.5 18.2 8.5 18.05C8.5 17.5833 8.58333 17.15 8.75 16.75C8.93333 16.3333 9.19167 15.9583 9.525 15.625L12 13.2L14.475 15.625C14.8083 15.9583 15.0583 16.3333 15.225 16.75C15.4083 17.15 15.5 17.5833 15.5 18.05C15.5 18.2 15.4833 18.35 15.45 18.5C15.4167 18.6333 15.3667 18.775 15.3 18.925C16.1333 18.3917 16.7917 17.6917 17.275 16.825C17.7583 15.9417 18 15 18 14C18 13.1667 17.8417 12.3833 17.525 11.65C17.225 10.9 16.7833 10.2333 16.2 9.65C15.8667 9.86667 15.5167 10.0333 15.15 10.15C14.7833 10.25 14.4083 10.3 14.025 10.3C12.9917 10.3 12.0917 9.95833 11.325 9.275C10.575 8.59167 10.1417 7.74167 10.025 6.725C8.725 7.825 7.725 9 7.025 10.25C6.34167 11.5 6 12.75 6 14ZM12 15.3L10.575 16.7C10.3917 16.8833 10.25 17.0917 10.15 17.325C10.05 17.5583 10 17.8 10 18.05C10 18.5833 10.1917 19.0417 10.575 19.425C10.975 19.8083 11.45 20 12 20C12.55 20 13.0167 19.8083 13.4 19.425C13.8 19.0417 14 18.5833 14 18.05C14 17.7833 13.95 17.5417 13.85 17.325C13.75 17.0917 13.6083 16.8833 13.425 16.7L12 15.3Z" fill="#020618"/>
</svg>
