<svg width="16" height="16" viewBox="0 0 16 16" fill="none" xmlns="http://www.w3.org/2000/svg">
<path d="M8 14.4C6.66667 14.4 5.53333 13.9333 4.6 13C3.66667 12.0667 3.2 10.9333 3.2 9.6C3.2 8.56667 3.5 7.50556 4.1 6.41667C4.71111 5.32778 5.55556 4.33889 6.63333 3.45C6.93333 3.19444 7.23333 3.12778 7.53333 3.25C7.84444 3.36111 8 3.59444 8 3.95V4.38333C8 4.71667 8.11667 5 8.35 5.23333C8.58333 5.46667 8.86667 5.58333 9.2 5.58333C9.36667 5.58333 9.52222 5.55556 9.66667 5.5C9.81111 5.44444 9.92778 5.36111 10.0167 5.25C10.1278 5.11667 10.2667 5.03889 10.4333 5.01667C10.6111 4.99444 10.7611 5.03889 10.8833 5.15C11.4722 5.66111 11.9389 6.31667 12.2833 7.11667C12.6278 7.91667 12.8 8.74444 12.8 9.6C12.8 10.9333 12.3333 12.0667 11.4 13C10.4667 13.9333 9.33333 14.4 8 14.4ZM4.4 9.6C4.4 10.1 4.5 10.5778 4.7 11.0333C4.91111 11.4778 5.22222 11.8944 5.63333 12.2833C5.62222 12.2167 5.61111 12.1556 5.6 12.1C5.6 12.0444 5.6 11.9944 5.6 11.95C5.6 11.6722 5.65 11.4 5.75 11.1333C5.86111 10.8667 6.01667 10.6222 6.21667 10.4L8 8.4L9.78333 10.4C9.98333 10.6222 10.1333 10.8667 10.2333 11.1333C10.3444 11.4 10.4 11.6722 10.4 11.95C10.4 12.0056 10.3944 12.0611 10.3833 12.1167C10.3833 12.1722 10.3778 12.2333 10.3667 12.3C10.7556 11.9778 11.0556 11.5833 11.2667 11.1167C11.4889 10.6389 11.6 10.1333 11.6 9.6C11.6 9.01111 11.5 8.44444 11.3 7.9C11.1111 7.35556 10.8333 6.85556 10.4667 6.4C10.2778 6.52222 10.0722 6.61667 9.85 6.68333C9.63889 6.75 9.42222 6.78333 9.2 6.78333C8.62222 6.78333 8.11111 6.60555 7.66667 6.25C7.23333 5.89444 6.96111 5.43333 6.85 4.86667C6.05 5.61111 5.43889 6.38333 5.01667 7.18333C4.60556 7.98333 4.4 8.78889 4.4 9.6ZM8 10.2L7.11667 11.2C7.01667 11.3222 6.93889 11.45 6.88333 11.5833C6.82778 11.7167 6.8 11.8556 6.8 12C6.8 12.3333 6.91667 12.6167 7.15 12.85C7.38333 13.0833 7.66667 13.2 8 13.2C8.33333 13.2 8.61667 13.0833 8.85 12.85C9.08333 12.6167 9.2 12.3333 9.2 12C9.2 11.8556 9.17222 11.7167 9.11667 11.5833C9.07222 11.45 8.99444 11.3222 8.88333 11.2L8 10.2Z" fill="#020618"/>
</svg>
