<svg width="17" height="16" viewBox="0 0 17 16" fill="none" xmlns="http://www.w3.org/2000/svg">
<path d="M8.5 14.4C7.05556 14.4 5.82778 13.8944 4.81667 12.8833C3.80556 11.8722 3.3 10.6444 3.3 9.2C3.3 8.52222 3.45 7.85556 3.75 7.2C4.06111 6.53333 4.44444 5.89444 4.9 5.28333C5.36667 4.67222 5.86667 4.1 6.4 3.56667C6.93333 3.03333 7.42778 2.56111 7.88333 2.15C7.97222 2.07222 8.06667 2.01667 8.16667 1.98333C8.27778 1.93889 8.38889 1.91667 8.5 1.91667C8.61111 1.91667 8.71667 1.93889 8.81667 1.98333C8.91667 2.01667 9.01111 2.07778 9.1 2.16667C9.54445 2.57778 10.0333 3.05 10.5667 3.58333C11.1 4.11667 11.6 4.68889 12.0667 5.3C12.5333 5.91111 12.9222 6.55 13.2333 7.21667C13.5444 7.87222 13.7 8.53333 13.7 9.2C13.7 10.6444 13.1944 11.8722 12.1833 12.8833C11.1722 13.8944 9.94444 14.4 8.5 14.4ZM8.5 13.2C9.61111 13.2 10.5556 12.8111 11.3333 12.0333C12.1111 11.2556 12.5 10.3111 12.5 9.2C12.5 8.44444 12.2 7.61667 11.6 6.71667C11 5.81667 9.96667 4.63889 8.5 3.18333C7.03333 4.63889 6 5.81667 5.4 6.71667C4.8 7.61667 4.5 8.44444 4.5 9.2C4.5 10.3111 4.88889 11.2556 5.66667 12.0333C6.44444 12.8111 7.38889 13.2 8.5 13.2ZM8.96667 12.3667C9.05556 12.3556 9.13333 12.3167 9.2 12.25C9.26667 12.1722 9.3 12.0778 9.3 11.9667C9.3 11.8444 9.25556 11.7444 9.16667 11.6667C9.07778 11.5889 8.97222 11.5611 8.85 11.5833C8.20556 11.6722 7.61111 11.5222 7.06667 11.1333C6.53333 10.7444 6.21667 10.2167 6.11667 9.55C6.10556 9.45 6.06111 9.36667 5.98333 9.3C5.91667 9.23333 5.83333 9.2 5.73333 9.2C5.61111 9.2 5.50556 9.24444 5.41667 9.33333C5.33889 9.42222 5.31111 9.52778 5.33333 9.65C5.45556 10.5167 5.86667 11.2167 6.56667 11.75C7.26667 12.2833 8.06667 12.4889 8.96667 12.3667Z" fill="white"/>
</svg>
