<svg width="17" height="16" viewBox="0 0 17 16" fill="none" xmlns="http://www.w3.org/2000/svg">
<path d="M6.31667 13.6C5.37222 13.6 4.56667 13.2667 3.9 12.6C3.23333 11.9333 2.9 11.1278 2.9 10.1833C2.9 9.79444 2.96111 9.41667 3.08333 9.05C3.21667 8.68333 3.4 8.35 3.63333 8.05L5.8 5.3L4.95 3.23333C4.86111 3.03333 4.87222 2.84444 4.98333 2.66667C5.10556 2.48889 5.27778 2.4 5.5 2.4H11.5C11.7333 2.4 11.9056 2.48889 12.0167 2.66667C12.1278 2.84444 12.1389 3.03333 12.05 3.23333L11.1833 5.3L13.3667 8.05C13.6 8.35 13.7778 8.68333 13.9 9.05C14.0333 9.41667 14.1 9.79444 14.1 10.1833C14.1 11.1278 13.7667 11.9333 13.1 12.6C12.4333 13.2667 11.6278 13.6 10.6833 13.6H6.31667ZM8.5 10.6C8.11111 10.6 7.77778 10.4667 7.5 10.2C7.23333 9.92222 7.1 9.58889 7.1 9.2C7.1 8.81111 7.23333 8.48333 7.5 8.21667C7.77778 7.93889 8.11111 7.8 8.5 7.8C8.88889 7.8 9.21667 7.93889 9.48333 8.21667C9.76111 8.48333 9.9 8.81111 9.9 9.2C9.9 9.58889 9.76111 9.92222 9.48333 10.2C9.21667 10.4667 8.88889 10.6 8.5 10.6ZM6.9 4.8H10.1L10.6 3.6H6.4L6.9 4.8ZM6.31667 12.4H10.6833C11.2944 12.4 11.8167 12.1833 12.25 11.75C12.6833 11.3167 12.9 10.7944 12.9 10.1833C12.9 9.92778 12.8556 9.68333 12.7667 9.45C12.6889 9.21667 12.5722 9 12.4167 8.8L10.2167 6H6.78333L4.58333 8.8C4.42778 9 4.30556 9.21667 4.21667 9.45C4.13889 9.68333 4.1 9.92778 4.1 10.1833C4.1 10.7944 4.31667 11.3167 4.75 11.75C5.18333 12.1833 5.70556 12.4 6.31667 12.4Z" fill="#020618"/>
</svg>
