<svg width="24" height="24" viewBox="0 0 24 24" fill="none" xmlns="http://www.w3.org/2000/svg">
<path d="M8.525 20.5C7.125 20.5 5.93333 20.0167 4.95 19.05C3.98333 18.0667 3.5 16.875 3.5 15.475C3.5 14.8917 3.6 14.325 3.8 13.775C4 13.2083 4.29167 12.7 4.675 12.25L8.2 8.025L6.6 4.8C6.45 4.5 6.45833 4.20833 6.625 3.925C6.79167 3.64167 7.05 3.5 7.4 3.5H16.6C16.95 3.5 17.2083 3.64167 17.375 3.925C17.5417 4.20833 17.55 4.5 17.4 4.8L15.8 8.025L19.325 12.25C19.7083 12.7 20 13.2083 20.2 13.775C20.4 14.325 20.5 14.8917 20.5 15.475C20.5 16.875 20.0083 18.0667 19.025 19.05C18.0583 20.0167 16.875 20.5 15.475 20.5H8.525ZM12 15.75C11.5 15.75 11.075 15.575 10.725 15.225C10.375 14.8583 10.2 14.425 10.2 13.925C10.2 13.425 10.375 13 10.725 12.65C11.075 12.3 11.5 12.125 12 12.125C12.5 12.125 12.925 12.3083 13.275 12.675C13.625 13.025 13.8 13.4417 13.8 13.925C13.8 14.425 13.625 14.8583 13.275 15.225C12.925 15.575 12.5 15.75 12 15.75ZM9.575 7.375H14.45L15.625 5H8.375L9.575 7.375ZM8.525 19H15.475C16.4583 19 17.2917 18.6583 17.975 17.975C18.6583 17.2917 19 16.4583 19 15.475C19 15.075 18.925 14.6833 18.775 14.3C18.6417 13.9 18.4417 13.5417 18.175 13.225L14.55 8.875H9.475L5.825 13.225C5.55833 13.525 5.35 13.875 5.2 14.275C5.06667 14.675 5 15.075 5 15.475C5 16.4583 5.34167 17.2917 6.025 17.975C6.70833 18.6583 7.54167 19 8.525 19Z" fill="#020618"/>
</svg>
