<svg width="16" height="19" viewBox="0 0 16 19" fill="none" xmlns="http://www.w3.org/2000/svg">
<path d="M4.475 16.175C4.29167 15.6083 4.125 15.0333 3.975 14.45C3.825 13.8667 3.70833 13.275 3.625 12.675L2.4 13.525C2.35 13.5583 2.30833 13.6 2.275 13.65C2.25833 13.6833 2.25 13.725 2.25 13.775V16.975C2.25 17.0083 2.25833 17.0333 2.275 17.05C2.30833 17.05 2.34167 17.05 2.375 17.05L4.475 16.175ZM7.725 2.8C6.825 3.81667 6.14167 4.98333 5.675 6.3C5.225 7.6 5 9 5 10.5C5 11.5167 5.09167 12.5083 5.275 13.475C5.45833 14.425 5.7 15.2667 6 16H10C10.3 15.2667 10.5417 14.425 10.725 13.475C10.9083 12.5083 11 11.5167 11 10.5C11 9 10.7667 7.6 10.3 6.3C9.85 4.98333 9.175 3.81667 8.275 2.8C8.225 2.76667 8.175 2.74167 8.125 2.725C8.09167 2.69167 8.05 2.675 8 2.675C7.95 2.675 7.9 2.69167 7.85 2.725C7.81667 2.74167 7.775 2.76667 7.725 2.8ZM8 10.75C7.51667 10.75 7.1 10.5833 6.75 10.25C6.41667 9.9 6.25 9.48333 6.25 9C6.25 8.51667 6.41667 8.10833 6.75 7.775C7.1 7.425 7.51667 7.25 8 7.25C8.48333 7.25 8.89167 7.425 9.225 7.775C9.575 8.10833 9.75 8.51667 9.75 9C9.75 9.48333 9.575 9.9 9.225 10.25C8.89167 10.5833 8.48333 10.75 8 10.75ZM11.525 16.2L13.625 17.05C13.6583 17.0667 13.6833 17.0667 13.7 17.05C13.7333 17.0333 13.75 17.0083 13.75 16.975V13.775C13.75 13.725 13.7333 13.6833 13.7 13.65C13.6833 13.6 13.65 13.5583 13.6 13.525L12.375 12.675C12.2917 13.275 12.175 13.875 12.025 14.475C11.875 15.0583 11.7083 15.6333 11.525 16.2ZM8.675 1.175C9.95833 2.35833 10.9167 3.75 11.55 5.35C12.1833 6.95 12.5 8.74167 12.5 10.725C12.5 10.775 12.5 10.825 12.5 10.875C12.5 10.9083 12.5 10.9417 12.5 10.975L14.425 12.275C14.675 12.425 14.875 12.6417 15.025 12.925C15.175 13.1917 15.25 13.475 15.25 13.775V17.975C15.25 18.2917 15.1167 18.5417 14.85 18.725C14.5833 18.8917 14.3 18.9167 14 18.8L10.775 17.5H5.225L2 18.8C1.7 18.9167 1.41667 18.8833 1.15 18.7C0.883333 18.5167 0.75 18.2667 0.75 17.95V13.775C0.75 13.475 0.816667 13.1917 0.95 12.925C1.1 12.6417 1.30833 12.4167 1.575 12.25L3.5 10.975C3.5 10.9417 3.5 10.9083 3.5 10.875C3.5 10.825 3.5 10.775 3.5 10.725C3.5 8.74167 3.81667 6.95 4.45 5.35C5.08333 3.75 6.04167 2.35833 7.325 1.175C7.425 1.09167 7.53333 1.03333 7.65 0.999999C7.76667 0.949998 7.88333 0.924998 8 0.924998C8.11667 0.924998 8.23333 0.949998 8.35 0.999999C8.46667 1.03333 8.575 1.09167 8.675 1.175Z" fill="#020618"/>
</svg>
