<svg width="10" height="14" viewBox="0 0 10 14" fill="none" xmlns="http://www.w3.org/2000/svg">
<path d="M2.61667 10.85C2.51667 10.5056 2.41667 10.1444 2.31667 9.76667C2.22778 9.38889 2.16667 9.07222 2.13333 8.81667L1.4 9.38333V11.45L2.61667 10.85ZM4.8 2.28333C4.31111 2.81667 3.92222 3.51667 3.63333 4.38333C3.34444 5.25 3.2 6.25555 3.2 7.4C3.2 8.04444 3.25556 8.58889 3.36667 9.03333C3.47778 9.46667 3.62222 9.98889 3.8 10.6H6.2C6.38889 9.98889 6.53333 9.46667 6.63333 9.03333C6.74444 8.58889 6.8 8.04444 6.8 7.4C6.8 6.25555 6.66111 5.25 6.38333 4.38333C6.10556 3.51667 5.71667 2.81667 5.21667 2.28333C5.19444 2.25 5.16111 2.22778 5.11667 2.21667C5.08333 2.20555 5.04445 2.2 5 2.2C4.96667 2.2 4.92778 2.21111 4.88333 2.23333C4.85 2.24444 4.82222 2.26111 4.8 2.28333ZM5 7.4C4.67778 7.4 4.39444 7.28889 4.15 7.06667C3.91667 6.83333 3.8 6.54444 3.8 6.2C3.8 5.84444 3.91667 5.55556 4.15 5.33333C4.39444 5.11111 4.67778 5 5 5C5.33333 5 5.61667 5.11111 5.85 5.33333C6.08333 5.55556 6.2 5.84444 6.2 6.2C6.2 6.54444 6.08333 6.83333 5.85 7.06667C5.61667 7.28889 5.33333 7.4 5 7.4ZM7.38333 10.85L8.6 11.45V9.38333L7.86667 8.81667C7.82222 9.13889 7.75556 9.47222 7.66667 9.81667C7.57778 10.15 7.48333 10.4944 7.38333 10.85ZM5.46667 0.9C6.32222 1.56667 6.95556 2.46111 7.36667 3.58333C7.78889 4.70556 8 5.84444 8 7C8 7.05556 8 7.12222 8 7.2C8 7.27778 8 7.34444 8 7.4L9.33333 8.43333C9.48889 8.55556 9.60556 8.69444 9.68333 8.85C9.76111 9.00556 9.8 9.18333 9.8 9.38333V12.45C9.8 12.65 9.71111 12.8167 9.53333 12.95C9.35556 13.0722 9.17222 13.0889 8.98333 13L6.6 11.8H3.4L1.03333 12.9833C0.844445 13.0722 0.655556 13.0556 0.466667 12.9333C0.288889 12.8 0.2 12.6333 0.2 12.4333V9.38333C0.2 9.18333 0.238889 9.00556 0.316667 8.85C0.394445 8.69444 0.511111 8.55556 0.666667 8.43333L2 7.4C2 7.34444 2 7.27778 2 7.2C2 7.12222 2 7.05556 2 7C2 5.84444 2.21111 4.70556 2.63333 3.58333C3.05556 2.46111 3.69444 1.56667 4.55 0.9C4.61667 0.844444 4.68889 0.805555 4.76667 0.783333C4.84444 0.749999 4.92222 0.733333 5 0.733333C5.08889 0.733333 5.17222 0.749999 5.25 0.783333C5.32778 0.805555 5.4 0.844444 5.46667 0.9Z" fill="white"/>
</svg>
