<svg width="24" height="24" viewBox="0 0 24 24" fill="none" xmlns="http://www.w3.org/2000/svg">
<path d="M16.9 19.5C16.65 19.5 16.4333 19.4167 16.25 19.25C16.0833 19.0667 16 18.85 16 18.6V14.5C16 14.25 16.0833 14.0417 16.25 13.875C16.4333 13.6917 16.65 13.6 16.9 13.6H18.6C18.85 13.6 19.0583 13.6917 19.225 13.875C19.4083 14.0417 19.5 14.25 19.5 14.5V18.6C19.5 18.85 19.4083 19.0667 19.225 19.25C19.0583 19.4167 18.85 19.5 18.6 19.5H16.9ZM11.15 19.5C10.9 19.5 10.6833 19.4167 10.5 19.25C10.3333 19.0667 10.25 18.85 10.25 18.6V5.4C10.25 5.15 10.3333 4.94167 10.5 4.775C10.6833 4.59167 10.9 4.5 11.15 4.5H12.85C13.1 4.5 13.3083 4.59167 13.475 4.775C13.6583 4.94167 13.75 5.15 13.75 5.4V18.6C13.75 18.85 13.6583 19.0667 13.475 19.25C13.3083 19.4167 13.1 19.5 12.85 19.5H11.15ZM5.4 19.5C5.15 19.5 4.93333 19.4167 4.75 19.25C4.58333 19.0667 4.5 18.85 4.5 18.6V10.3C4.5 10.05 4.58333 9.84167 4.75 9.675C4.93333 9.49167 5.15 9.4 5.4 9.4H7.1C7.35 9.4 7.55833 9.49167 7.725 9.675C7.90833 9.84167 8 10.05 8 10.3V18.6C8 18.85 7.90833 19.0667 7.725 19.25C7.55833 19.4167 7.35 19.5 7.1 19.5H5.4Z" fill="white"/>
</svg>
